<svg width="280" height="88" viewBox="0 0 280 88" fill="none" xmlns="http://www.w3.org/2000/svg">
<rect x="55" y="30" width="5" height="28" rx="2.5" fill="#059DC0"/>
<rect x="66" y="13" width="5" height="62" rx="2.5" fill="#059DC0"/>
<rect x="77" width="5" height="88" rx="2.5" fill="#059DC0"/>
<rect x="88" y="13" width="5" height="62" rx="2.5" fill="#059DC0"/>
<rect x="99" y="30" width="5" height="28" rx="2.5" fill="#059DC0"/>
<rect x="110" y="23" width="5" height="42" rx="2.5" fill="#059DC0"/>
<rect y="23" width="5" height="42" rx="2.5" fill="#059DC0"/>
<rect x="121" y="10" width="5" height="68" rx="2.5" fill="#059DC0"/>
<rect x="11" y="10" width="5" height="68" rx="2.5" fill="#059DC0"/>
<rect x="132" y="21" width="5" height="46" rx="2.5" fill="url(#paint0_linear_1_50)" fill-opacity="0.31"/>
<rect x="22" y="21" width="5" height="46" rx="2.5" fill="#059DC0"/>
<rect x="143" y="5" width="5" height="78" rx="2.5" fill="url(#paint1_linear_1_50)" fill-opacity="0.31"/>
<rect x="33" y="5" width="5" height="78" rx="2.5" fill="#059DC0"/>
<rect x="154" y="19" width="5" height="50" rx="2.5" fill="url(#paint2_linear_1_50)" fill-opacity="0.31"/>
<rect x="44" y="19" width="5" height="50" rx="2.5" fill="#059DC0"/>
<rect x="165" y="30" width="5" height="28" rx="2.5" fill="url(#paint3_linear_1_50)" fill-opacity="0.31"/>
<rect x="176" y="13" width="5" height="62" rx="2.5" fill="url(#paint4_linear_1_50)" fill-opacity="0.31"/>
<rect x="187" width="5" height="88" rx="2.5" fill="url(#paint5_linear_1_50)" fill-opacity="0.31"/>
<rect x="198" y="13" width="5" height="62" rx="2.5" fill="url(#paint6_linear_1_50)" fill-opacity="0.31"/>
<rect x="209" y="30" width="5" height="28" rx="2.5" fill="url(#paint7_linear_1_50)" fill-opacity="0.31"/>
<rect x="220" y="23" width="5" height="42" rx="2.5" fill="url(#paint8_linear_1_50)" fill-opacity="0.31"/>
<rect x="231" y="10" width="5" height="68" rx="2.5" fill="url(#paint9_linear_1_50)" fill-opacity="0.31"/>
<rect x="242" y="21" width="5" height="46" rx="2.5" fill="url(#paint10_linear_1_50)" fill-opacity="0.31"/>
<rect x="253" y="5" width="5" height="78" rx="2.5" fill="url(#paint11_linear_1_50)" fill-opacity="0.31"/>
<rect x="264" y="19" width="5" height="50" rx="2.5" fill="url(#paint12_linear_1_50)" fill-opacity="0.31"/>
<rect x="275" y="30" width="5" height="28" rx="2.5" fill="url(#paint13_linear_1_50)" fill-opacity="0.31"/>
<defs>
<linearGradient id="paint0_linear_1_50" x1="134.5" y1="16.0341" x2="130.474" y2="75.353" gradientUnits="userSpaceOnUse">
<stop stop-color="#059DC0"/>
<stop offset="1" stop-color="#059DC0" stop-opacity="0.24"/>
</linearGradient>
<linearGradient id="paint1_linear_1_50" x1="145.5" y1="-3.42045" x2="134.024" y2="96.3064" gradientUnits="userSpaceOnUse">
<stop stop-color="#059DC0"/>
<stop offset="1" stop-color="#059DC0" stop-opacity="0.24"/>
</linearGradient>
<linearGradient id="paint2_linear_1_50" x1="156.5" y1="13.6023" x2="151.748" y2="78.0257" gradientUnits="userSpaceOnUse">
<stop stop-color="#059DC0"/>
<stop offset="1" stop-color="#059DC0" stop-opacity="0.24"/>
</linearGradient>
<linearGradient id="paint3_linear_1_50" x1="167.5" y1="26.9773" x2="166.004" y2="63.1889" gradientUnits="userSpaceOnUse">
<stop stop-color="#059DC0"/>
<stop offset="1" stop-color="#059DC0" stop-opacity="0.24"/>
</linearGradient>
<linearGradient id="paint4_linear_1_50" x1="178.5" y1="6.30682" x2="171.214" y2="85.9602" gradientUnits="userSpaceOnUse">
<stop stop-color="#059DC0"/>
<stop offset="1" stop-color="#059DC0" stop-opacity="0.24"/>
</linearGradient>
<linearGradient id="paint5_linear_1_50" x1="189.5" y1="-9.5" x2="174.945" y2="102.613" gradientUnits="userSpaceOnUse">
<stop stop-color="#059DC0"/>
<stop offset="1" stop-color="#059DC0" stop-opacity="0.24"/>
</linearGradient>
<linearGradient id="paint6_linear_1_50" x1="200.5" y1="6.30682" x2="193.214" y2="85.9602" gradientUnits="userSpaceOnUse">
<stop stop-color="#059DC0"/>
<stop offset="1" stop-color="#059DC0" stop-opacity="0.24"/>
</linearGradient>
<linearGradient id="paint7_linear_1_50" x1="211.5" y1="26.9773" x2="210.004" y2="63.1889" gradientUnits="userSpaceOnUse">
<stop stop-color="#059DC0"/>
<stop offset="1" stop-color="#059DC0" stop-opacity="0.24"/>
</linearGradient>
<linearGradient id="paint8_linear_1_50" x1="222.5" y1="18.4659" x2="219.142" y2="72.668" gradientUnits="userSpaceOnUse">
<stop stop-color="#059DC0"/>
<stop offset="1" stop-color="#059DC0" stop-opacity="0.24"/>
</linearGradient>
<linearGradient id="paint9_linear_1_50" x1="233.5" y1="2.65909" x2="224.751" y2="89.874" gradientUnits="userSpaceOnUse">
<stop stop-color="#059DC0"/>
<stop offset="1" stop-color="#059DC0" stop-opacity="0.24"/>
</linearGradient>
<linearGradient id="paint10_linear_1_50" x1="244.5" y1="16.0341" x2="240.474" y2="75.353" gradientUnits="userSpaceOnUse">
<stop stop-color="#059DC0"/>
<stop offset="1" stop-color="#059DC0" stop-opacity="0.24"/>
</linearGradient>
<linearGradient id="paint11_linear_1_50" x1="255.5" y1="-3.42045" x2="244.024" y2="96.3064" gradientUnits="userSpaceOnUse">
<stop stop-color="#059DC0"/>
<stop offset="1" stop-color="#059DC0" stop-opacity="0.24"/>
</linearGradient>
<linearGradient id="paint12_linear_1_50" x1="266.5" y1="13.6023" x2="261.748" y2="78.0257" gradientUnits="userSpaceOnUse">
<stop stop-color="#059DC0"/>
<stop offset="1" stop-color="#059DC0" stop-opacity="0.24"/>
</linearGradient>
<linearGradient id="paint13_linear_1_50" x1="277.5" y1="26.9773" x2="276.004" y2="63.1889" gradientUnits="userSpaceOnUse">
<stop stop-color="#059DC0"/>
<stop offset="1" stop-color="#059DC0" stop-opacity="0.24"/>
</linearGradient>
</defs>
</svg>
